<svg id="bold" style='color: #C8A44D;'
 height="512" viewBox="0 0 32 32" 
 width="512" xmlns="http://www.w3.org/2000/svg">
 <path d="m26 32h-20c-3.314 0-6-2.686-6-6v-20c0-3.314 2.686-6 6-6h20c3.314 0 6 2.686 6 6v20c0 3.314-2.686 6-6 6z" fill="#C8A44D"/>
 <g fill="#fff">
 <path d="m16.971 17.667h-1.941c-.218 0-.411-.141-.477-.35l-.529-1.676c-.06-.188-.002-.395.146-.525l1.5-1.324c.189-.167.473-.167.661 0l1.5 1.324c.148.131.206.337.146.525l-.529 1.676c-.066.208-.259.35-.477.35z"/><path d="m15.333 11.333h1.333v3.078h-1.333z"/><path d="m17.438 14.412h2.791v1.333h-2.791z" transform="matrix(.956 -.295 .295 .956 -3.61 6.228)"/>
 <path d="m12.5 13.683h1.333v2.791h-1.333z" transform="matrix(.295 -.956 .956 .295 -5.126 23.209)"/>
 <path d="m12.806 17.583h2.752v1.333h-2.752z" transform="matrix(.616 -.788 .788 .616 -8.931 18.173)"/>
 <path d="m17.152 16.874h1.333v2.752h-1.333z" transform="matrix(.788 -.616 .616 .788 -7.462 14.862)"/>
 </g>
 <path d="m16 24c-4.411 0-8-3.589-8-8s3.589-8 8-8 8 3.589 8 8-3.589 8-8 8zm0-14.667c-3.676 0-6.667 2.991-6.667 6.667s2.991 6.667 6.667 6.667 6.667-2.991 6.667-6.667-2.991-6.667-6.667-6.667z" fill="#fff"/><path d="m16 21.333c-2.941 0-5.333-2.393-5.333-5.333s2.393-5.333 5.333-5.333 5.333 2.393 5.333 5.333-2.392 5.333-5.333 5.333zm0-9.333c-2.206 0-4 1.794-4 4s1.794 4 4 4 4-1.794 4-4-1.794-4-4-4z" fill="#fff"/></svg>